# xmcd CD database file
#
# Track frame offsets:
#	150
#	16819
#	37412
#	51498
#	66501
#	83527
#	100429
#	116492
#	133014
#	154193
#	170247
#	186290
#
# Disc length: 2795 seconds
#
# Revision: 0
# Processed by: cddbd v1.5.1PL2 Copyright (c) Steve Scherf et al.
# Submitted via: CDex 1.51
#
DISCID=af0ae90c
DTITLE=Marcela Monreal - Fine and Mellow
DYEAR=1998
DGENRE=Jazz
TTITLE0=Embraceable You
TTITLE1=Love You  Madly
TTITLE2=Wave
TTITLE3=If I Give My Heart to You
TTITLE4=Deep Purple
TTITLE5=Samba Da Minha Terra
TTITLE6=As Time Goes By
TTITLE7=Fine And Mellow
TTITLE8=Ruby, My Dear
TTITLE9=I'm Just a Lucky So and So
TTITLE10=Summertime
TTITLE11=What a Wonderful World
EXTD=YEAR: 1998
EXTT0=
EXTT1=
EXTT2=
EXTT3=
EXTT4=
EXTT5=
EXTT6=
EXTT7=
EXTT8=
EXTT9=
EXTT10=
EXTT11=
PLAYORDER=
